name Walk3.mot
datacolumns 19
datarows 17
range 2.45100000 2.46700000
endheader

                time	   L_ground_force_vx	   L_ground_force_vy	   L_ground_force_vz	   L_ground_force_px	   L_ground_force_py	   L_ground_force_pz	   R_ground_force_vx	   R_ground_force_vy	   R_ground_force_vz	   R_ground_force_px	   R_ground_force_py	   R_ground_force_pz	   L_ground_torque_x	   L_ground_torque_y	   L_ground_torque_z	   R_ground_torque_x	   R_ground_torque_y	   R_ground_torque_z	
          2.45100000	          0.00000000	          0.00000000	          0.00000000	          0.00000000	          0.00000000	          0.00000000	         34.46596086	        999.38693886	         64.08846762	         -0.29083286	          0.00000000	         -0.05229222	          0.00000000	          0.00000000	          0.00000000	          0.00000000	         -1.92679514	          0.00000000	
          2.45200000	          0.00000000	          0.00000000	          0.00000000	          0.00000000	          0.00000000	          0.00000000	         34.63795898	       1000.47477586	         64.16620990	         -0.29036350	          0.00000000	         -0.05229250	          0.00000000	          0.00000000	          0.00000000	          0.00000000	         -1.92258010	          0.00000000	
          2.45300000	          0.00000000	          0.00000000	          0.00000000	          0.00000000	          0.00000000	          0.00000000	         34.81824437	       1001.64888363	         64.27039215	         -0.28988358	          0.00000000	         -0.05226256	          0.00000000	          0.00000000	          0.00000000	          0.00000000	         -1.90425782	          0.00000000	
          2.45400000	          0.00000000	          0.00000000	          0.00000000	          0.00000000	          0.00000000	          0.00000000	         35.00952054	       1002.96030082	         64.41110584	         -0.28939216	          0.00000000	         -0.05219832	          0.00000000	          0.00000000	          0.00000000	          0.00000000	         -1.87945868	          0.00000000	
          2.45500000	          0.00000000	          0.00000000	          0.00000000	          0.00000000	          0.00000000	          0.00000000	         35.23039702	       1004.36727723	         64.58394006	         -0.28888711	          0.00000000	         -0.05210044	          0.00000000	          0.00000000	          0.00000000	          0.00000000	         -1.85815847	          0.00000000	
          2.45600000	          0.00000000	          0.00000000	          0.00000000	          0.00000000	          0.00000000	          0.00000000	         35.49814810	       1005.75516454	         64.77201613	         -0.28837867	          0.00000000	         -0.05198262	          0.00000000	          0.00000000	          0.00000000	          0.00000000	         -1.84400398	          0.00000000	
          2.45700000	          0.00000000	          0.00000000	          0.00000000	          0.00000000	          0.00000000	          0.00000000	         35.80818268	       1007.04784800	         64.95736104	         -0.28788647	          0.00000000	         -0.05187743	          0.00000000	          0.00000000	          0.00000000	          0.00000000	         -1.83382575	          0.00000000	
          2.45800000	          0.00000000	          0.00000000	          0.00000000	          0.00000000	          0.00000000	          0.00000000	         36.13845637	       1008.28341846	         65.13103464	         -0.28742402	          0.00000000	         -0.05182025	          0.00000000	          0.00000000	          0.00000000	          0.00000000	         -1.82416367	          0.00000000	
          2.45900000	          0.00000000	          0.00000000	          0.00000000	          0.00000000	          0.00000000	          0.00000000	         36.46700613	       1009.55189820	         65.29486868	         -0.28699435	          0.00000000	         -0.05182482	          0.00000000	          0.00000000	          0.00000000	          0.00000000	         -1.81620160	          0.00000000	
          2.46000000	          0.00000000	          0.00000000	          0.00000000	          0.00000000	          0.00000000	          0.00000000	         36.78182801	       1010.88791253	         65.45489522	         -0.28659420	          0.00000000	         -0.05187365	          0.00000000	          0.00000000	          0.00000000	          0.00000000	         -1.81319283	          0.00000000	
          2.46100000	          0.00000000	          0.00000000	          0.00000000	          0.00000000	          0.00000000	          0.00000000	         37.08202034	       1012.25045952	         65.61165477	         -0.28621477	          0.00000000	         -0.05193173	          0.00000000	          0.00000000	          0.00000000	          0.00000000	         -1.81415899	          0.00000000	
          2.46200000	          0.00000000	          0.00000000	          0.00000000	          0.00000000	          0.00000000	          0.00000000	         37.37266221	       1013.59155677	         65.76287324	         -0.28584207	          0.00000000	         -0.05196678	          0.00000000	          0.00000000	          0.00000000	          0.00000000	         -1.81388588	          0.00000000	
          2.46300000	          0.00000000	          0.00000000	          0.00000000	          0.00000000	          0.00000000	          0.00000000	         37.66174457	       1014.90862416	         65.91727929	         -0.28546178	          0.00000000	         -0.05196477	          0.00000000	          0.00000000	          0.00000000	          0.00000000	         -1.80949683	          0.00000000	
          2.46400000	          0.00000000	          0.00000000	          0.00000000	          0.00000000	          0.00000000	          0.00000000	         37.96442255	       1016.21385750	         66.09003975	         -0.28506524	          0.00000000	         -0.05193649	          0.00000000	          0.00000000	          0.00000000	          0.00000000	         -1.80270692	          0.00000000	
          2.46500000	          0.00000000	          0.00000000	          0.00000000	          0.00000000	          0.00000000	          0.00000000	         38.30147086	       1017.50915353	         66.28450666	         -0.28465310	          0.00000000	         -0.05190346	          0.00000000	          0.00000000	          0.00000000	          0.00000000	         -1.79409231	          0.00000000	
          2.46600000	          0.00000000	          0.00000000	          0.00000000	          0.00000000	          0.00000000	          0.00000000	         38.68623209	       1018.81893358	         66.49509178	         -0.28423364	          0.00000000	         -0.05187655	          0.00000000	          0.00000000	          0.00000000	          0.00000000	         -1.77974985	          0.00000000	
          2.46700000	          0.00000000	          0.00000000	          0.00000000	          0.00000000	          0.00000000	          0.00000000	         39.11522560	       1020.18787360	         66.72100515	         -0.28381559	          0.00000000	         -0.05185295	          0.00000000	          0.00000000	          0.00000000	          0.00000000	         -1.75617898	          0.00000000	
